<?xml version="1.0" encoding="utf-8"?>
<!-- Generator: Adobe Illustrator 28.1.0, SVG Export Plug-In . SVG Version: 6.00 Build 0)  -->
<svg version="1.1" xmlns="http://www.w3.org/2000/svg" xmlns:xlink="http://www.w3.org/1999/xlink" x="0px" y="0px"
	 viewBox="0 0 425.2 136.15" style="enable-background:new 0 0 425.2 136.15;" xml:space="preserve">
<style type="text/css">
	.st0{fill:#232323;}
	.st1{fill:url(#SVGID_1_);}
</style>
<g id="Calque_1">
	<g>
		<g>
			<path class="st0" d="M18.74,108.99v4.66H8.93c-1.07,0-2,0.2-2.77,0.61c-0.78,0.41-1.16,0.98-1.16,1.72
				c0,0.44,0.09,0.84,0.28,1.19c0.18,0.35,0.4,0.64,0.64,0.86c0.24,0.22,0.61,0.45,1.11,0.69c0.5,0.24,0.89,0.41,1.16,0.5
				c0.28,0.09,1.45,0.47,3.52,1.14c2.07,0.67,3.6,1.22,4.6,1.66c1,0.44,1.76,1.04,2.3,1.8c0.54,0.76,0.88,1.5,1.03,2.22
				s0.22,1.43,0.22,2.13c0,4.95-3.4,7.43-10.2,7.43H0.06v-4.66h9.59c3.47,0,5.21-0.92,5.21-2.77c0-0.89-0.51-1.63-1.53-2.22
				c-1.02-0.59-2.25-1.09-3.71-1.5c-1.46-0.41-2.92-0.88-4.38-1.41c-1.46-0.54-2.7-1.4-3.71-2.6c-1.02-1.2-1.53-2.69-1.53-4.46
				c0-2.25,0.87-3.98,2.61-5.18c1.74-1.2,3.84-1.8,6.32-1.8H18.74z"/>
			<path class="st0" d="M27.39,112.48c2.59-2.7,5.82-4.05,9.7-4.05c1.88,0,3.65,0.36,5.29,1.08c1.64,0.72,3.08,1.71,4.32,2.97
				c1.24,1.26,2.21,2.73,2.91,4.41c0.7,1.68,1.05,3.48,1.05,5.4c0,1.92-0.34,3.72-1.03,5.4c-0.68,1.68-1.64,3.15-2.86,4.41
				c-1.22,1.26-2.66,2.25-4.32,2.97c-1.66,0.72-3.46,1.08-5.38,1.08c-1.96,0-3.76-0.36-5.4-1.08c-1.64-0.72-3.08-1.71-4.3-2.97
				c-1.22-1.26-2.17-2.72-2.85-4.41c-0.68-1.68-1.03-3.48-1.03-5.4C23.52,118.37,24.81,115.1,27.39,112.48z M37.1,113.09
				c-2.59,0-4.67,0.85-6.24,2.55c-1.57,1.7-2.36,3.92-2.36,6.65c0,2.74,0.78,4.95,2.36,6.65c1.57,1.7,3.65,2.55,6.24,2.55
				c2.62,0,4.71-0.86,6.26-2.58c1.55-1.72,2.33-3.93,2.33-6.62c0-2.7-0.78-4.91-2.33-6.62S39.72,113.09,37.1,113.09z"/>
			<path class="st0" d="M55.81,125.06V96.79h4.99v28.27c0,1.33,0.16,2.41,0.47,3.24c0.31,0.83,0.8,1.42,1.47,1.77
				c0.67,0.35,1.31,0.58,1.94,0.69c0.63,0.11,1.46,0.17,2.49,0.17v4.66c-4.14,0-7.07-0.79-8.79-2.38
				C56.67,131.62,55.81,128.91,55.81,125.06z"/>
			<path class="st0" d="M92.26,135.59h-9.59c-4.1,0-7.04-0.61-8.81-1.83c-1.59-1.07-2.6-2.36-3.02-3.85
				c-0.43-1.5-0.64-3.46-0.64-5.9v-15.02h4.88v14.97c0,0.67,0.02,1.23,0.05,1.69c0.04,0.46,0.17,1.05,0.39,1.77
				c0.22,0.72,0.54,1.31,0.94,1.77c0.41,0.46,1,0.87,1.77,1.22c0.78,0.35,1.72,0.53,2.83,0.53h6.32v-21.95h4.88V135.59z"/>
			<path class="st0" d="M95.89,113.64l9.92-9.92v5.27h7.48v4.66h-7.48v11.42c0,1.29,0.21,2.37,0.64,3.21
				c0.43,0.85,1.04,1.45,1.86,1.8c0.81,0.35,1.58,0.58,2.3,0.69c0.72,0.11,1.62,0.17,2.69,0.17v4.66c-4.25,0-7.39-0.81-9.42-2.44
				c-2.03-1.63-3.05-4.32-3.05-8.09v-11.42H95.89z"/>
			<path class="st0" d="M125.79,135.59h-4.88v-21.95h-4.55l2.22-4.66h7.21V135.59z M120.69,103.44c-0.48-0.63-0.72-1.31-0.72-2.05
				c0-0.74,0.24-1.41,0.72-2.02c0.48-0.61,1.22-0.91,2.22-0.91c1,0,1.74,0.31,2.22,0.91c0.48,0.61,0.72,1.28,0.72,2.02
				c0,0.74-0.24,1.41-0.72,2.02c-0.48,0.61-1.22,0.91-2.22,0.91C121.91,104.33,121.17,104.04,120.69,103.44z"/>
			<path class="st0" d="M135.33,112.48c2.59-2.7,5.82-4.05,9.7-4.05c1.88,0,3.65,0.36,5.29,1.08c1.64,0.72,3.09,1.71,4.32,2.97
				c1.24,1.26,2.21,2.73,2.91,4.41c0.7,1.68,1.05,3.48,1.05,5.4c0,1.92-0.34,3.72-1.03,5.4c-0.68,1.68-1.63,3.15-2.85,4.41
				c-1.22,1.26-2.66,2.25-4.32,2.97c-1.66,0.72-3.46,1.08-5.38,1.08c-1.96,0-3.76-0.36-5.41-1.08c-1.64-0.72-3.08-1.71-4.3-2.97
				c-1.22-1.26-2.17-2.72-2.86-4.41c-0.69-1.68-1.03-3.48-1.03-5.4C131.45,118.37,132.75,115.1,135.33,112.48z M145.03,113.09
				c-2.59,0-4.67,0.85-6.24,2.55c-1.57,1.7-2.36,3.92-2.36,6.65c0,2.74,0.79,4.95,2.36,6.65c1.57,1.7,3.65,2.55,6.24,2.55
				c2.62,0,4.71-0.86,6.26-2.58c1.55-1.72,2.33-3.93,2.33-6.62c0-2.7-0.78-4.91-2.33-6.62
				C149.75,113.95,147.66,113.09,145.03,113.09z"/>
			<path class="st0" d="M163.98,108.99h9.59c4.1,0,7.04,0.61,8.81,1.83c1.59,1.07,2.6,2.36,3.02,3.85c0.42,1.5,0.64,3.46,0.64,5.9
				v15.02h-4.88v-14.97c0-0.67-0.02-1.23-0.06-1.69c-0.04-0.46-0.17-1.05-0.39-1.77c-0.22-0.72-0.54-1.31-0.94-1.77
				c-0.41-0.46-1-0.87-1.77-1.22c-0.78-0.35-1.72-0.53-2.83-0.53h-6.32v21.95h-4.88V108.99z"/>
			<path class="st0" d="M210.1,108.99v4.66h-9.81c-1.07,0-2,0.2-2.77,0.61c-0.77,0.41-1.16,0.98-1.16,1.72
				c0,0.44,0.09,0.84,0.28,1.19c0.18,0.35,0.4,0.64,0.64,0.86c0.24,0.22,0.61,0.45,1.11,0.69c0.5,0.24,0.89,0.41,1.16,0.5
				c0.28,0.09,1.45,0.47,3.52,1.14s3.6,1.22,4.6,1.66c1,0.44,1.76,1.04,2.3,1.8c0.54,0.76,0.88,1.5,1.03,2.22
				c0.15,0.72,0.22,1.43,0.22,2.13c0,4.95-3.4,7.43-10.2,7.43h-9.59v-4.66h9.59c3.47,0,5.21-0.92,5.21-2.77
				c0-0.89-0.51-1.63-1.52-2.22c-1.02-0.59-2.26-1.09-3.72-1.5c-1.46-0.41-2.92-0.88-4.38-1.41c-1.46-0.54-2.7-1.4-3.71-2.6
				c-1.02-1.2-1.53-2.69-1.53-4.46c0-2.25,0.87-3.98,2.61-5.18c1.74-1.2,3.84-1.8,6.32-1.8H210.1z"/>
		</g>
		<linearGradient id="SVGID_1_" gradientUnits="userSpaceOnUse" x1="132.1771" y1="92.317" x2="132.1771" y2="20.9902">
			<stop  offset="0" style="stop-color:#8917A6"/>
			<stop  offset="0.9989" style="stop-color:#CA8BEA"/>
		</linearGradient>
		<path class="st1" d="M132.18,92.32c-19.67,0-35.66-16-35.66-35.66s16-35.66,35.66-35.66c19.66,0,35.66,16,35.66,35.66
			S151.84,92.32,132.18,92.32z M132.18,30.84c-14.23,0-25.81,11.58-25.81,25.81s11.58,25.81,25.81,25.81
			c14.23,0,25.81-11.58,25.81-25.81S146.41,30.84,132.18,30.84z"/>
		<path class="st0" d="M343.92,92.32c-19.66,0-35.66-16-35.66-35.66c0-20,15.02-35.66,34.19-35.66c14.53,0,24.29,8.9,24.29,22.15
			c0,21.61-23.55,21.61-34.87,21.61V54.9c20.93,0,25.02-4.31,25.02-11.76c0-11.41-11.05-12.3-14.44-12.3
			c-13.88,0-24.34,11.1-24.34,25.81c0,14.23,11.58,25.81,25.81,25.81c5.71,0,11.12-1.83,15.65-5.3l5.99,7.82
			C359.29,89.78,351.81,92.32,343.92,92.32z"/>
		<path class="st0" d="M404.28,90.65c-0.1,0-0.19,0-0.28,0h-28.85V80.8H404c0.03,0,0.06,0,0.09,0c4.44,0,8.27-0.32,10.3-4.06
			c1.04-1.92,1.24-4.16,0.54-6.15c-0.8-2.27-2.76-4.12-5.67-5.34l-21.48-8.03c-5.27-1.73-9.23-5.31-11.15-10.1
			c-1.97-4.92-1.64-10.63,0.89-15.28c5.01-9.22,14.86-9.18,19.05-9.2h25.39v9.85h-25.4c-0.03,0-0.06,0-0.09,0
			c-4.44,0-8.27,0.32-10.3,4.06c-1.11,2.04-1.27,4.76-0.4,6.92c0.85,2.11,2.57,3.6,5.14,4.42l0.22,0.08l21.76,8.14
			c7.18,3,10.11,7.75,11.33,11.22c1.62,4.61,1.19,9.76-1.18,14.12C418.15,90.47,408.62,90.65,404.28,90.65z"/>
		<path class="st0" d="M63.16,22.57H0v68.17h9.85V32.42h28.72v58.32h9.85V32.42h14.74c8.06,0,14.62,6.56,14.62,14.62v43.7h9.85
			v-43.7C87.63,33.54,76.65,22.57,63.16,22.57z"/>
		<circle class="st0" cx="233.46" cy="6.24" r="6.24"/>
		<path class="st0" d="M294.49,22.64c-2.53,15.16-8.1,40.67-18.48,54.92c-10.38-14.26-15.94-39.76-18.48-54.92h-10.01
			c2.81,17.53,9.91,50.73,24.98,66.01l3.51,3.56l3.51-3.56c15.07-15.28,22.17-48.48,24.98-66.01H294.49z"/>
		<polygon class="st0" points="221.48,22.6 216.77,32.45 228.53,32.45 228.53,90.73 238.38,90.73 238.38,22.6 		"/>
		<path class="st0" d="M205.3,80.78c-8.06,0-14.62-6.56-14.62-14.62V32.45h20.32V22.6h-20.32v-9.85l-9.85,9.85v0h0l-9.85,9.85h9.85
			v33.72c0,13.49,10.98,24.47,24.47,24.47h5.91v-9.85H205.3z"/>
	</g>
</g>
<g id="Calque_2">
</g>
</svg>
